<?xml version="1.0" encoding="utf-8"?>
<!-- Generator: Adobe Illustrator 19.0.0, SVG Export Plug-In . SVG Version: 6.00 Build 0)  -->
<svg version="1.1" id="Layer_1" xmlns="http://www.w3.org/2000/svg" xmlns:xlink="http://www.w3.org/1999/xlink" x="0px" y="0px"
	 viewBox="0 0 129.8 161.2" style="enable-background:new 0 0 129.8 161.2;" xml:space="preserve">
<style type="text/css">
	.st0{fill:none;}
	.st1{fill:#BCBEC0;}
	.st2{fill:#FFFFFF;}
	.st3{fill:#808285;}
	.st4{fill:#A7A9AC;}
	.st5{fill:none;stroke:#231F20;stroke-width:0.95;stroke-linecap:square;}
	.st6{fill:#4D4D4F;}
</style>
<pattern  x="-267.2" y="-142.5" width="82.1" height="82.1" patternUnits="userSpaceOnUse" id="Unnamed_Pattern_1" viewBox="43.8 -87.8 82.1 82.1" style="overflow:visible;">
	<g>
		<polygon class="st0" points="43.8,-5.7 43.8,-87.8 125.9,-87.8 125.9,-5.7 		"/>
		<polygon class="st1" points="43.8,-5.7 43.8,-87.8 125.9,-87.8 125.9,-5.7 		"/>
		<line class="st2" x1="25.9" y1="-10.3" x2="30.5" y2="-5.7"/>
		<line class="st2" x1="25.9" y1="-5.7" x2="30.5" y2="-10.3"/>
		<polygon class="st3" points="129.3,-43.3 129.3,-47.9 38.1,-47.9 38.1,-43.3 		"/>
		<polygon class="st3" points="129.3,-16 129.3,-20.5 38.1,-20.5 38.1,-16 		"/>
		<polygon class="st3" points="129.3,-70.7 129.3,-75.2 38.1,-75.2 38.1,-70.7 		"/>
		<polygon class="st3" points="129.3,-52.4 129.3,-57 38.1,-57 38.1,-52.4 		"/>
		<polygon class="st3" points="129.3,-25.1 129.3,-29.6 38.1,-29.6 38.1,-25.1 		"/>
		<polygon class="st3" points="129.3,-79.8 129.3,-84.4 38.1,-84.4 38.1,-79.8 		"/>
		<polygon class="st4" points="25.9,-70.7 25.9,-75.2 16.8,-75.2 16.8,-70.7 		"/>
		<polygon class="st3" points="86,-91.2 81.4,-91.2 81.4,0 86,0 		"/>
		<polygon class="st3" points="113.3,-91.2 108.8,-91.2 108.8,0 113.3,0 		"/>
		<polygon class="st3" points="58.6,-91.2 54.1,-91.2 54.1,0 58.6,0 		"/>
		<polygon class="st3" points="95.1,-91.2 90.5,-91.2 90.5,0 95.1,0 		"/>
		<polygon class="st3" points="122.5,-91.2 117.9,-91.2 117.9,0 122.5,0 		"/>
		<polygon class="st3" points="67.7,-91.2 63.2,-91.2 63.2,0 67.7,0 		"/>
		<polygon class="st4" points="15.3,-76.8 15.3,-85.9 10.7,-85.9 10.7,-76.8 		"/>
		<line class="st5" x1="43" y1="-36.5" x2="126.6" y2="-36.5"/>
		<line class="st5" x1="43" y1="-9.1" x2="126.6" y2="-9.1"/>
		<line class="st5" x1="43" y1="-63.8" x2="126.6" y2="-63.8"/>
		<line class="st5" x1="0.5" y1="-63.8" x2="31.3" y2="-63.8"/>
		<line class="st5" x1="74.6" y1="-88.5" x2="74.6" y2="-4.9"/>
		<line class="st5" x1="101.9" y1="-88.5" x2="101.9" y2="-4.9"/>
		<line class="st5" x1="47.2" y1="-88.5" x2="47.2" y2="-4.9"/>
		<line class="st5" x1="3.9" y1="-91.2" x2="3.9" y2="-60.4"/>
		<polygon class="st6" points="15.3,-70.7 15.3,-75.2 10.7,-75.2 10.7,-70.7 		"/>
		<polygon class="st6" points="58.6,-70.7 58.6,-75.2 54.1,-75.2 54.1,-70.7 		"/>
		<polygon class="st6" points="67.7,-79.8 67.7,-84.4 63.2,-84.4 63.2,-79.8 		"/>
		<polygon class="st6" points="67.7,-70.7 67.7,-75.2 63.2,-75.2 63.2,-70.7 		"/>
		<polygon class="st6" points="58.6,-79.8 58.6,-84.4 54.1,-84.4 54.1,-79.8 		"/>
		<polygon class="st6" points="86,-70.7 86,-75.2 81.4,-75.2 81.4,-70.7 		"/>
		<polygon class="st6" points="95.1,-79.8 95.1,-84.4 90.5,-84.4 90.5,-79.8 		"/>
		<polygon class="st6" points="95.1,-70.7 95.1,-75.2 90.5,-75.2 90.5,-70.7 		"/>
		<polygon class="st6" points="86,-79.8 86,-84.4 81.4,-84.4 81.4,-79.8 		"/>
		<polygon class="st6" points="113.3,-70.7 113.3,-75.2 108.8,-75.2 108.8,-70.7 		"/>
		<polygon class="st6" points="122.5,-79.8 122.5,-84.4 117.9,-84.4 117.9,-79.8 		"/>
		<polygon class="st6" points="122.5,-70.7 122.5,-75.2 117.9,-75.2 117.9,-70.7 		"/>
		<polygon class="st6" points="113.3,-79.8 113.3,-84.4 108.8,-84.4 108.8,-79.8 		"/>
		<polygon class="st6" points="58.6,-43.3 58.6,-47.9 54.1,-47.9 54.1,-43.3 		"/>
		<polygon class="st6" points="67.7,-52.4 67.7,-57 63.2,-57 63.2,-52.4 		"/>
		<polygon class="st6" points="67.7,-43.3 67.7,-47.9 63.2,-47.9 63.2,-43.3 		"/>
		<polygon class="st6" points="58.6,-52.4 58.6,-57 54.1,-57 54.1,-52.4 		"/>
		<polygon class="st6" points="86,-43.3 86,-47.9 81.4,-47.9 81.4,-43.3 		"/>
		<polygon class="st6" points="95.1,-52.4 95.1,-57 90.5,-57 90.5,-52.4 		"/>
		<polygon class="st6" points="95.1,-43.3 95.1,-47.9 90.5,-47.9 90.5,-43.3 		"/>
		<polygon class="st6" points="86,-52.4 86,-57 81.4,-57 81.4,-52.4 		"/>
		<polygon class="st6" points="113.3,-43.3 113.3,-47.9 108.8,-47.9 108.8,-43.3 		"/>
		<polygon class="st6" points="122.5,-52.4 122.5,-57 117.9,-57 117.9,-52.4 		"/>
		<polygon class="st6" points="122.5,-43.3 122.5,-47.9 117.9,-47.9 117.9,-43.3 		"/>
		<polygon class="st6" points="113.3,-52.4 113.3,-57 108.8,-57 108.8,-52.4 		"/>
		<polygon class="st6" points="58.6,-16 58.6,-20.5 54.1,-20.5 54.1,-16 		"/>
		<polygon class="st6" points="67.7,-25.1 67.7,-29.6 63.2,-29.6 63.2,-25.1 		"/>
		<polygon class="st6" points="67.7,-16 67.7,-20.5 63.2,-20.5 63.2,-16 		"/>
		<polygon class="st6" points="58.6,-25.1 58.6,-29.6 54.1,-29.6 54.1,-25.1 		"/>
		<polygon class="st6" points="86,-16 86,-20.5 81.4,-20.5 81.4,-16 		"/>
		<polygon class="st6" points="95.1,-25.1 95.1,-29.6 90.5,-29.6 90.5,-25.1 		"/>
		<polygon class="st6" points="95.1,-16 95.1,-20.5 90.5,-20.5 90.5,-16 		"/>
		<polygon class="st6" points="86,-25.1 86,-29.6 81.4,-29.6 81.4,-25.1 		"/>
		<polygon class="st6" points="113.3,-16 113.3,-20.5 108.8,-20.5 108.8,-16 		"/>
		<polygon class="st6" points="122.5,-25.1 122.5,-29.6 117.9,-29.6 117.9,-25.1 		"/>
		<polygon class="st6" points="122.5,-16 122.5,-20.5 117.9,-20.5 117.9,-16 		"/>
		<polygon class="st6" points="113.3,-25.1 113.3,-29.6 108.8,-29.6 108.8,-25.1 		"/>
	</g>
</pattern>
<g id="Arrow_1">
	<g id="XMLID_2_">
		<g id="XMLID_76_">
			<g id="XMLID_77_">
				<polygon id="XMLID_78_" points="129.8,161.2 64.9,0 0,161.2 				"/>
			</g>
		</g>
		<g id="XMLID_73_">
			<g id="XMLID_74_">
				<polygon id="XMLID_75_" points="129.8,161.2 64.9,0 0,161.2 				"/>
			</g>
		</g>
	</g>
</g>
</svg>
