<?xml version="1.0" encoding="utf-8"?>
<!-- Generator: Adobe Illustrator 16.0.0, SVG Export Plug-In . SVG Version: 6.00 Build 0)  -->
<!DOCTYPE svg PUBLIC "-//W3C//DTD SVG 1.1//EN" "http://www.w3.org/Graphics/SVG/1.1/DTD/svg11.dtd">
<svg version="1.1" id="LOGO" xmlns="http://www.w3.org/2000/svg" xmlns:xlink="http://www.w3.org/1999/xlink" x="0px" y="0px"
	 width="134px" height="32px" viewBox="0 0 134 32" enable-background="new 0 0 134 32" xml:space="preserve">
<g>
	<rect fill="#010202" width="134" height="32"/>
	<g>
		<path fill="#FFFFFF" d="M16.406,23.895c-0.045,0.271-0.148,0.525-0.31,0.762c-0.162,0.235-0.395,0.433-0.699,0.592
			c-0.304,0.158-0.714,0.237-1.231,0.237c-0.291,0-0.573-0.041-0.844-0.121c-0.271-0.081-0.514-0.207-0.728-0.379
			c-0.213-0.171-0.385-0.391-0.514-0.659s-0.194-0.593-0.194-0.975V22.75h1.377v0.311c0,0.168,0.013,0.323,0.039,0.465
			c0.026,0.143,0.071,0.264,0.136,0.364c0.064,0.101,0.153,0.18,0.267,0.237c0.113,0.059,0.26,0.088,0.441,0.088
			c0.2,0,0.355-0.036,0.465-0.107c0.11-0.07,0.189-0.163,0.238-0.276c0.048-0.112,0.078-0.235,0.087-0.368s0.015-0.261,0.015-0.383
			v-4.676h1.523v4.743C16.474,23.374,16.451,23.623,16.406,23.895z"/>
		<path fill="#FFFFFF" d="M18.23,20.456c0.155-0.443,0.378-0.829,0.669-1.159s0.648-0.588,1.072-0.776
			c0.423-0.188,0.9-0.281,1.431-0.281c0.537,0,1.015,0.094,1.436,0.281c0.42,0.188,0.776,0.446,1.067,0.776s0.514,0.716,0.669,1.159
			c0.155,0.442,0.233,0.923,0.233,1.44c0,0.504-0.078,0.975-0.233,1.411s-0.378,0.816-0.669,1.14s-0.646,0.577-1.067,0.762
			s-0.899,0.276-1.436,0.276c-0.53,0-1.007-0.092-1.431-0.276c-0.424-0.185-0.781-0.438-1.072-0.762s-0.514-0.703-0.669-1.14
			s-0.233-0.907-0.233-1.411C17.997,21.379,18.075,20.898,18.23,20.456z M19.622,22.745c0.068,0.274,0.176,0.522,0.325,0.742
			c0.148,0.22,0.343,0.396,0.582,0.528s0.53,0.199,0.873,0.199s0.634-0.066,0.873-0.199c0.239-0.133,0.433-0.309,0.582-0.528
			c0.148-0.22,0.257-0.468,0.325-0.742s0.102-0.558,0.102-0.849c0-0.304-0.034-0.599-0.102-0.883s-0.176-0.538-0.325-0.762
			c-0.149-0.223-0.343-0.4-0.582-0.533c-0.239-0.133-0.53-0.199-0.873-0.199s-0.634,0.066-0.873,0.199s-0.434,0.311-0.582,0.533
			c-0.149,0.224-0.257,0.478-0.325,0.762s-0.102,0.579-0.102,0.883C19.52,22.188,19.554,22.471,19.622,22.745z"/>
		<path fill="#FFFFFF" d="M27.493,23.623c0.084,0.161,0.195,0.293,0.334,0.393c0.139,0.101,0.302,0.175,0.49,0.224
			c0.188,0.048,0.381,0.072,0.582,0.072c0.136,0,0.281-0.011,0.437-0.034c0.155-0.022,0.301-0.066,0.437-0.131
			s0.249-0.153,0.339-0.267c0.091-0.113,0.136-0.257,0.136-0.432c0-0.188-0.06-0.34-0.179-0.456s-0.276-0.213-0.471-0.291
			c-0.194-0.077-0.414-0.146-0.659-0.203c-0.246-0.059-0.495-0.123-0.747-0.194c-0.259-0.064-0.511-0.144-0.757-0.237
			c-0.246-0.094-0.465-0.215-0.659-0.364c-0.194-0.148-0.351-0.335-0.471-0.558s-0.179-0.493-0.179-0.81
			c0-0.355,0.076-0.665,0.228-0.927s0.351-0.48,0.597-0.654c0.246-0.175,0.524-0.305,0.834-0.389
			c0.31-0.084,0.621-0.126,0.931-0.126c0.362,0,0.709,0.04,1.042,0.122c0.333,0.08,0.629,0.211,0.888,0.393
			c0.258,0.181,0.464,0.412,0.616,0.693s0.228,0.622,0.228,1.023h-1.474c-0.013-0.207-0.057-0.379-0.131-0.515
			c-0.074-0.136-0.173-0.242-0.295-0.32c-0.123-0.077-0.264-0.132-0.422-0.164c-0.158-0.032-0.331-0.049-0.519-0.049
			c-0.123,0-0.246,0.013-0.369,0.039c-0.123,0.025-0.234,0.071-0.335,0.136c-0.1,0.064-0.183,0.146-0.247,0.242
			c-0.065,0.097-0.097,0.22-0.097,0.368c0,0.137,0.026,0.246,0.078,0.33s0.153,0.162,0.306,0.233
			c0.152,0.071,0.362,0.142,0.63,0.213c0.268,0.071,0.619,0.162,1.052,0.271c0.129,0.026,0.309,0.073,0.539,0.141
			c0.229,0.068,0.458,0.177,0.684,0.325c0.226,0.148,0.422,0.348,0.586,0.597c0.165,0.249,0.248,0.567,0.248,0.955
			c0,0.317-0.062,0.611-0.184,0.883c-0.123,0.271-0.306,0.506-0.548,0.703c-0.242,0.197-0.543,0.352-0.902,0.461
			c-0.359,0.11-0.774,0.165-1.247,0.165c-0.382,0-0.752-0.047-1.111-0.141s-0.676-0.241-0.951-0.441s-0.493-0.456-0.654-0.767
			c-0.162-0.311-0.24-0.679-0.233-1.105h1.474C27.367,23.264,27.409,23.461,27.493,23.623z"/>
		<path fill="#FFFFFF" d="M38.289,18.404v1.28h-3.657v1.484h3.356v1.184h-3.356v1.697h3.734v1.28h-5.257v-6.926H38.289z"/>
		<path fill="#FFFFFF" d="M44.749,18.404v1.28h-3.346v1.601h2.9v1.184h-2.9v2.861H39.88v-6.926H44.749z"/>
		<path fill="#FFFFFF" d="M47.64,18.404v6.926h-1.523v-6.926H47.64z"/>
		<path fill="#FFFFFF" d="M50.977,18.404l2.891,4.646h0.019v-4.646h1.426v6.926H53.79l-2.881-4.637h-0.02v4.637h-1.426v-6.926
			H50.977z"/>
		<path fill="#FFFFFF" d="M61.123,23.895c-0.046,0.271-0.149,0.525-0.311,0.762c-0.162,0.235-0.395,0.433-0.698,0.592
			c-0.305,0.158-0.715,0.237-1.232,0.237c-0.291,0-0.572-0.041-0.844-0.121c-0.271-0.081-0.514-0.207-0.728-0.379
			c-0.213-0.171-0.385-0.391-0.514-0.659c-0.13-0.269-0.194-0.593-0.194-0.975V22.75h1.378v0.311c0,0.168,0.013,0.323,0.038,0.465
			c0.026,0.143,0.071,0.264,0.136,0.364s0.154,0.18,0.267,0.237c0.113,0.059,0.261,0.088,0.441,0.088
			c0.201,0,0.356-0.036,0.466-0.107c0.11-0.07,0.189-0.163,0.238-0.276c0.048-0.112,0.077-0.235,0.087-0.368
			s0.015-0.261,0.015-0.383v-4.676h1.522v4.743C61.19,23.374,61.168,23.623,61.123,23.895z"/>
		<path fill="#FFFFFF" d="M62.946,20.456c0.155-0.443,0.378-0.829,0.669-1.159s0.648-0.588,1.072-0.776
			c0.423-0.188,0.9-0.281,1.431-0.281c0.536,0,1.015,0.094,1.436,0.281c0.42,0.188,0.776,0.446,1.067,0.776s0.514,0.716,0.669,1.159
			c0.155,0.442,0.232,0.923,0.232,1.44c0,0.504-0.077,0.975-0.232,1.411s-0.378,0.816-0.669,1.14s-0.647,0.577-1.067,0.762
			c-0.421,0.185-0.899,0.276-1.436,0.276c-0.53,0-1.008-0.092-1.431-0.276c-0.424-0.185-0.781-0.438-1.072-0.762
			s-0.514-0.703-0.669-1.14s-0.233-0.907-0.233-1.411C62.713,21.379,62.791,20.898,62.946,20.456z M64.338,22.745
			c0.068,0.274,0.177,0.522,0.325,0.742s0.343,0.396,0.582,0.528s0.53,0.199,0.873,0.199s0.634-0.066,0.873-0.199
			s0.433-0.309,0.582-0.528c0.148-0.22,0.257-0.468,0.325-0.742C67.966,22.471,68,22.188,68,21.896c0-0.304-0.034-0.599-0.102-0.883
			c-0.068-0.284-0.177-0.538-0.325-0.762c-0.149-0.223-0.343-0.4-0.582-0.533s-0.53-0.199-0.873-0.199s-0.634,0.066-0.873,0.199
			s-0.434,0.311-0.582,0.533c-0.148,0.224-0.257,0.478-0.325,0.762c-0.067,0.284-0.102,0.579-0.102,0.883
			C64.236,22.188,64.271,22.471,64.338,22.745z"/>
		<path fill="#FFFFFF" d="M72.568,18.404v2.658h2.803v-2.658h1.523v6.926h-1.523v-2.987h-2.803v2.987h-1.523v-6.926H72.568z"/>
		<path fill="#FFFFFF" d="M82.171,18.404l2.59,6.926H83.18l-0.523-1.542h-2.59l-0.543,1.542H77.99l2.619-6.926H82.171z
			 M82.259,22.653l-0.873-2.542h-0.02l-0.902,2.542H82.259z"/>
		<path fill="#FFFFFF" d="M87.361,18.404l2.891,4.646h0.02v-4.646h1.426v6.926h-1.523l-2.881-4.637h-0.02v4.637h-1.426v-6.926
			H87.361z"/>
		<path fill="#FFFFFF" d="M94.685,23.623c0.084,0.161,0.196,0.293,0.335,0.393c0.139,0.101,0.302,0.175,0.49,0.224
			c0.188,0.048,0.381,0.072,0.582,0.072c0.136,0,0.281-0.011,0.437-0.034c0.154-0.022,0.3-0.066,0.437-0.131
			c0.136-0.064,0.248-0.153,0.339-0.267s0.136-0.257,0.136-0.432c0-0.188-0.06-0.34-0.18-0.456c-0.119-0.116-0.276-0.213-0.47-0.291
			c-0.194-0.077-0.414-0.146-0.66-0.203c-0.245-0.059-0.494-0.123-0.747-0.194c-0.258-0.064-0.511-0.144-0.756-0.237
			c-0.246-0.094-0.466-0.215-0.66-0.364c-0.193-0.148-0.351-0.335-0.47-0.558c-0.12-0.223-0.18-0.493-0.18-0.81
			c0-0.355,0.076-0.665,0.228-0.927c0.152-0.262,0.351-0.48,0.597-0.654c0.246-0.175,0.523-0.305,0.834-0.389
			s0.621-0.126,0.932-0.126c0.362,0,0.709,0.04,1.043,0.122c0.333,0.08,0.629,0.211,0.887,0.393
			c0.259,0.181,0.465,0.412,0.616,0.693c0.152,0.281,0.229,0.622,0.229,1.023h-1.475c-0.014-0.207-0.057-0.379-0.131-0.515
			s-0.174-0.242-0.296-0.32c-0.123-0.077-0.264-0.132-0.422-0.164c-0.159-0.032-0.332-0.049-0.52-0.049
			c-0.123,0-0.245,0.013-0.368,0.039c-0.123,0.025-0.234,0.071-0.335,0.136s-0.183,0.146-0.247,0.242s-0.097,0.22-0.097,0.368
			c0,0.137,0.025,0.246,0.077,0.33s0.153,0.162,0.306,0.233c0.151,0.071,0.362,0.142,0.631,0.213
			c0.268,0.071,0.619,0.162,1.052,0.271c0.13,0.026,0.309,0.073,0.539,0.141c0.229,0.068,0.457,0.177,0.684,0.325
			c0.226,0.148,0.422,0.348,0.587,0.597s0.247,0.567,0.247,0.955c0,0.317-0.062,0.611-0.185,0.883s-0.306,0.506-0.548,0.703
			s-0.543,0.352-0.902,0.461c-0.358,0.11-0.774,0.165-1.246,0.165c-0.382,0-0.752-0.047-1.11-0.141
			c-0.359-0.094-0.676-0.241-0.951-0.441c-0.274-0.2-0.493-0.456-0.654-0.767c-0.162-0.311-0.239-0.679-0.233-1.105h1.475
			C94.559,23.264,94.601,23.461,94.685,23.623z"/>
		<path fill="#FFFFFF" d="M101.464,23.623c0.084,0.161,0.196,0.293,0.335,0.393c0.139,0.101,0.302,0.175,0.49,0.224
			c0.188,0.048,0.381,0.072,0.582,0.072c0.136,0,0.281-0.011,0.437-0.034c0.154-0.022,0.3-0.066,0.437-0.131
			c0.136-0.064,0.248-0.153,0.339-0.267s0.136-0.257,0.136-0.432c0-0.188-0.06-0.34-0.18-0.456c-0.119-0.116-0.276-0.213-0.47-0.291
			c-0.194-0.077-0.414-0.146-0.66-0.203c-0.245-0.059-0.494-0.123-0.747-0.194c-0.258-0.064-0.511-0.144-0.756-0.237
			c-0.246-0.094-0.466-0.215-0.66-0.364c-0.193-0.148-0.351-0.335-0.47-0.558c-0.12-0.223-0.18-0.493-0.18-0.81
			c0-0.355,0.076-0.665,0.228-0.927c0.152-0.262,0.351-0.48,0.597-0.654c0.246-0.175,0.523-0.305,0.834-0.389
			s0.621-0.126,0.932-0.126c0.362,0,0.709,0.04,1.043,0.122c0.333,0.08,0.629,0.211,0.887,0.393
			c0.259,0.181,0.465,0.412,0.616,0.693c0.152,0.281,0.229,0.622,0.229,1.023h-1.475c-0.014-0.207-0.057-0.379-0.131-0.515
			s-0.174-0.242-0.296-0.32c-0.123-0.077-0.264-0.132-0.422-0.164c-0.159-0.032-0.332-0.049-0.52-0.049
			c-0.123,0-0.245,0.013-0.368,0.039c-0.123,0.025-0.234,0.071-0.335,0.136s-0.183,0.146-0.247,0.242s-0.097,0.22-0.097,0.368
			c0,0.137,0.025,0.246,0.077,0.33s0.153,0.162,0.306,0.233c0.151,0.071,0.362,0.142,0.631,0.213
			c0.268,0.071,0.619,0.162,1.052,0.271c0.13,0.026,0.309,0.073,0.539,0.141c0.229,0.068,0.457,0.177,0.684,0.325
			c0.226,0.148,0.422,0.348,0.587,0.597s0.247,0.567,0.247,0.955c0,0.317-0.062,0.611-0.185,0.883s-0.306,0.506-0.548,0.703
			s-0.543,0.352-0.902,0.461c-0.358,0.11-0.774,0.165-1.246,0.165c-0.382,0-0.752-0.047-1.11-0.141
			c-0.359-0.094-0.676-0.241-0.951-0.441c-0.274-0.2-0.493-0.456-0.654-0.767c-0.162-0.311-0.239-0.679-0.233-1.105h1.475
			C101.338,23.264,101.38,23.461,101.464,23.623z"/>
		<path fill="#FFFFFF" d="M107.013,20.456c0.155-0.443,0.378-0.829,0.669-1.159s0.648-0.588,1.072-0.776
			c0.423-0.188,0.9-0.281,1.431-0.281c0.536,0,1.015,0.094,1.436,0.281c0.42,0.188,0.776,0.446,1.067,0.776s0.514,0.716,0.669,1.159
			c0.155,0.442,0.232,0.923,0.232,1.44c0,0.504-0.077,0.975-0.232,1.411s-0.378,0.816-0.669,1.14s-0.647,0.577-1.067,0.762
			c-0.421,0.185-0.899,0.276-1.436,0.276c-0.53,0-1.008-0.092-1.431-0.276c-0.424-0.185-0.781-0.438-1.072-0.762
			s-0.514-0.703-0.669-1.14s-0.233-0.907-0.233-1.411C106.779,21.379,106.857,20.898,107.013,20.456z M108.404,22.745
			c0.068,0.274,0.177,0.522,0.325,0.742s0.343,0.396,0.582,0.528s0.53,0.199,0.873,0.199s0.634-0.066,0.873-0.199
			s0.433-0.309,0.582-0.528c0.148-0.22,0.257-0.468,0.325-0.742c0.067-0.274,0.102-0.558,0.102-0.849
			c0-0.304-0.034-0.599-0.102-0.883c-0.068-0.284-0.177-0.538-0.325-0.762c-0.149-0.223-0.343-0.4-0.582-0.533
			s-0.53-0.199-0.873-0.199s-0.634,0.066-0.873,0.199s-0.434,0.311-0.582,0.533c-0.148,0.224-0.257,0.478-0.325,0.762
			c-0.067,0.284-0.102,0.579-0.102,0.883C108.303,22.188,108.337,22.471,108.404,22.745z"/>
		<path fill="#FFFFFF" d="M116.626,18.404l2.891,4.646h0.02v-4.646h1.426v6.926h-1.523l-2.881-4.637h-0.02v4.637h-1.426v-6.926
			H116.626z"/>
	</g>
</g>
<g>
</g>
<g>
</g>
<g>
</g>
<g>
</g>
<g>
</g>
<g>
</g>
</svg>
